<svg width="73" height="72" viewBox="0 0 73 72" fill="none" xmlns="http://www.w3.org/2000/svg">
<rect x="0.5" width="72" height="72" rx="36" fill="#26CD58"/>
<g clip-path="url(#clip0_520_170441)">
<path d="M27.4628 19.5959C28.2348 19.4228 29.1379 19.4838 29.8731 19.7809C30.74 20.1312 31.9511 20.7664 33.0429 21.8582C34.6319 23.4472 35.4263 24.2416 35.4667 26.1414C35.507 28.0413 34.6504 28.9738 32.9373 30.8389C32.4389 31.3815 31.9059 31.9159 31.3636 32.4158L31.9229 33.075L39.423 40.5748L40.0782 41.1307C40.5782 40.5884 41.1127 40.0552 41.6554 39.5568C43.5207 37.8436 44.4534 36.987 46.3533 37.0274C48.2532 37.0677 49.0486 37.8631 50.6394 39.4539C51.7322 40.5466 52.3681 41.7586 52.7188 42.6259C53.0159 43.361 53.0773 44.2638 52.9043 45.0359C52.6207 46.3023 51.9404 48.3035 50.3375 49.8358C49.5277 50.6288 48.7479 51.2007 47.8363 51.6245C44.6655 53.0989 40.9078 52.5879 37.7878 51.0089C35.2967 49.7481 32.3319 47.8984 28.6246 44.1912C24.9173 40.484 22.752 37.204 21.4912 34.713C19.9121 31.5931 19.4011 27.8355 20.8755 24.6648C21.2968 23.7589 21.8642 22.983 22.6497 22.1787C24.1838 20.5652 26.1926 19.8808 27.4628 19.5959Z" fill="white"/>
</g>
<defs>
<clipPath id="clip0_520_170441">
<rect width="44" height="44" fill="white" transform="translate(14.5 14)"/>
</clipPath>
</defs>
</svg>
