<svg width="37" height="28" viewBox="0 0 37 28" fill="none" xmlns="http://www.w3.org/2000/svg">
<path fill-rule="evenodd" clip-rule="evenodd" d="M8.27118 19.8795L8.21468 19.8162L5.99502 17.3302C4.81039 16.0034 4.11647 15.2176 3.68454 14.5883C3.48786 14.3017 3.41007 14.1366 3.37955 14.0562C3.36578 14.0198 3.36262 14.0032 3.36236 14.0018L3.36235 14.0018C3.36234 14.0017 3.36233 14.0017 3.36232 14.0018C3.36231 14.0018 3.36231 14.0018 3.36231 14.0018L3.3623 14.0001L3.36231 13.9984C3.36231 13.9984 3.36232 13.9985 3.36233 13.9985C3.36233 13.9985 3.36234 13.9985 3.36235 13.9985L3.36236 13.9984C3.36262 13.9971 3.36578 13.9804 3.37955 13.9441C3.41006 13.8637 3.48785 13.6986 3.68453 13.412C4.11645 12.7826 4.81036 11.9968 5.99497 10.67L8.27119 8.12064C11.1672 4.87706 12.0453 3.99099 13.171 3.51142C14.302 3.02959 15.4692 3.00966 19.5974 3.16022C20.6783 3.19964 21.7357 3.24441 22.7549 3.29224C28.4454 3.55934 29.8609 3.76201 31.3919 5.25798C32.2985 6.1439 32.6658 6.83018 32.8955 7.63524C33.1763 8.61985 33.2756 9.83735 33.4295 12.0314C33.4749 12.678 33.4999 13.336 33.4999 14.0002C33.4999 14.6643 33.4749 15.3223 33.4295 15.9689C33.2756 18.1629 33.1763 19.3802 32.8955 20.3648C32.6659 21.1697 32.2986 21.856 31.3919 22.7419C29.8609 24.2379 28.4455 24.4406 22.7553 24.7077C21.7359 24.7555 20.6784 24.8003 19.5973 24.8397C15.4691 24.9903 14.3019 24.9703 13.171 24.4885C12.0453 24.009 11.1672 23.1229 8.27118 19.8795ZM19.7066 27.8377C20.7991 27.7979 21.8671 27.7526 22.896 27.7044C28.2953 27.4509 30.995 27.3242 33.4885 24.8876C35.9821 22.4511 36.1288 20.3604 36.4221 16.1789C36.472 15.4677 36.4999 14.7395 36.4999 14.0002C36.4999 13.2608 36.472 12.5326 36.4221 11.8215C36.1288 7.63971 35.9821 5.54882 33.4885 3.11226C30.9949 0.675702 28.2951 0.548982 22.8955 0.295545C21.8669 0.247262 20.799 0.202052 19.7068 0.162215C15.8205 0.0204725 13.8773 -0.0503989 11.9952 0.75146C10.113 1.55332 8.75313 3.07642 6.03336 6.12261L3.75714 8.67201C1.49391 11.2069 0.362293 12.4743 0.362305 14.0002C0.362316 15.526 1.49395 16.7934 3.75722 19.3283L6.03338 21.8775C8.75314 24.9236 10.113 26.4467 11.9951 27.2485C13.8773 28.0503 15.8204 27.9795 19.7066 27.8377ZM14.9393 8.4393C15.5251 7.85352 16.4748 7.85352 17.0606 8.4393L20.4999 11.8786L23.9393 8.4393C24.5251 7.85352 25.4748 7.85352 26.0606 8.4393C26.6464 9.02509 26.6464 9.97484 26.0606 10.5606L22.6212 14L26.0606 17.4393C26.6464 18.0251 26.6464 18.9748 26.0606 19.5606C25.4748 20.1464 24.5251 20.1464 23.9393 19.5606L20.4999 16.1213L17.0606 19.5606C16.4748 20.1464 15.5251 20.1464 14.9393 19.5606C14.3535 18.9748 14.3535 18.0251 14.9393 17.4393L18.3786 14L14.9393 10.5606C14.3535 9.97484 14.3535 9.02509 14.9393 8.4393Z" fill="black"/>
</svg>
