<svg id="vector" xmlns="http://www.w3.org/2000/svg" width="72" height="72" viewBox="0 0 512 512"><path fill="#FFF" d="M347,128L286,128L250,128L225,128C220.79,128 215.98,127.4 212,129.01C199.63,134.02 197.04,152.08 207.09,160.61C216.42,168.51 234.6,165 246,165L340,165C351.32,165 368.61,168.32 377.96,160.61C388.26,152.1 384,130.97 384,119L438,173C447.28,182.28 456.26,193.44 467,201L384,284C384,271.73 388.34,250.21 377.91,241.39C372.31,236.67 364.87,237 358,237L320,237L165,237L165,191C165,183.27 165.67,175.37 159.67,169.47C148.03,158.01 135.18,166.82 126,176L59,243L16,286C8.56,293.44 -0.01,299.66 0.01,311C0.02,322.12 8.73,328.73 16,336L59,379L125,445C133.58,453.58 146.1,463.3 157.96,453.61C165.13,447.73 165,439.44 165,431L165,384L226,384L262,384L287,384C291.21,384 296.02,384.6 300,382.99C312.37,377.98 314.96,359.92 304.91,351.39C295.58,343.49 277.4,347 266,347L172,347C160.68,347 143.39,343.68 134.04,351.39C123.74,359.9 128,381.03 128,393L74,339C64.72,329.72 55.74,318.56 45,311L128,228C128,240.27 123.66,261.79 134.09,270.61C139.69,275.33 147.13,275 154,275L192,275L347,275L347,321C347,328.73 346.33,336.63 352.33,342.53C363.97,353.98 376.82,345.18 386,336L453,269L496,226C503.44,218.56 512.01,212.34 511.99,201C511.98,189.88 503.27,183.27 496,176L453,133L387,67C378.29,58.29 366.09,48.62 354.04,58.39C346.75,64.31 347,72.45 347,81L347,128z" stroke="#00000000" id="path_0"/></svg>